<svg xmlns="http://www.w3.org/2000/svg" xmlns:xlink="http://www.w3.org/1999/xlink" width="500" zoomAndPan="magnify" viewBox="0 0 375 374.999991" height="500" preserveAspectRatio="xMidYMid meet" version="1.0"><defs><g/><clipPath id="1c6486a0fb"><path d="M 165 107 L 280.855469 107 L 280.855469 274.394531 L 165 274.394531 Z M 165 107 " clip-rule="nonzero"/></clipPath><clipPath id="290b5ad850"><path d="M 94.105469 71.144531 L 210 71.144531 L 210 239 L 94.105469 239 Z M 94.105469 71.144531 " clip-rule="nonzero"/></clipPath></defs><g clip-path="url(#1c6486a0fb)"><path fill="#49326b" d="M 280.789062 273.652344 C 275.417969 265.09375 270.042969 256.535156 264.660156 247.976562 L 256.585938 235.164062 L 248.480469 222.351562 L 232.242188 196.746094 L 217.011719 172.757812 L 236.625 143.957031 L 241.785156 136.386719 C 243.515625 133.867188 245.230469 131.335938 246.96875 128.824219 L 257.398438 113.753906 L 261.617188 107.660156 L 205.992188 107.285156 L 204.816406 109.382812 C 203.105469 112.449219 201.429688 115.539062 199.738281 118.617188 L 198.472656 120.933594 L 197.222656 123.257812 L 194.714844 127.894531 L 189.757812 137.203125 L 187.230469 142.003906 C 186.265625 140.539062 185.300781 139.078125 184.335938 137.621094 L 181.378906 133.195312 L 178.394531 128.789062 L 175.40625 124.390625 L 172.378906 120.011719 C 170.347656 117.089844 168.292969 114.191406 166.203125 111.316406 C 166.140625 111.210938 166.054688 111.144531 165.9375 111.117188 C 165.824219 111.085938 165.714844 111.101562 165.609375 111.160156 C 165.507812 111.222656 165.441406 111.308594 165.410156 111.425781 C 165.382812 111.539062 165.394531 111.648438 165.457031 111.753906 C 166.972656 114.964844 168.53125 118.15625 170.128906 121.328125 L 172.523438 126.085938 L 174.949219 130.828125 L 177.394531 135.554688 L 179.863281 140.265625 C 181.523438 143.398438 183.183594 146.53125 184.867188 149.652344 L 187.296875 154.15625 L 190.191406 149.617188 C 192.078125 146.648438 193.921875 143.664062 195.789062 140.6875 L 201.339844 131.726562 L 204.089844 127.226562 L 205.464844 124.988281 L 206.828125 122.746094 C 208.203125 120.464844 209.585938 118.1875 210.953125 115.902344 C 212.042969 115.902344 245.300781 115.777344 246.621094 115.75 L 240.90625 124.828125 C 239.28125 127.414062 237.628906 129.980469 235.988281 132.558594 L 231.054688 140.28125 L 211.289062 171.152344 L 210.257812 172.757812 L 211.289062 174.25 L 228.425781 199.265625 L 245.597656 224.253906 L 254.1875 236.742188 L 262.800781 249.214844 C 268.542969 257.542969 274.300781 265.851562 280.082031 274.140625 C 280.148438 274.234375 280.238281 274.292969 280.351562 274.316406 C 280.464844 274.339844 280.570312 274.320312 280.667969 274.253906 C 280.765625 274.191406 280.824219 274.101562 280.847656 273.988281 C 280.871094 273.871094 280.851562 273.765625 280.789062 273.667969 Z M 280.789062 273.652344 " fill-opacity="1" fill-rule="nonzero"/></g><g clip-path="url(#290b5ad850)"><path fill="#49326b" d="M 204.902344 224.078125 L 202.511719 219.316406 L 200.085938 214.578125 L 197.636719 209.851562 L 195.171875 205.140625 C 193.507812 202.003906 191.855469 198.867188 190.167969 195.75 L 187.738281 191.246094 L 184.84375 195.789062 C 182.953125 198.753906 181.109375 201.738281 179.242188 204.71875 L 173.691406 213.679688 L 170.945312 218.179688 L 169.566406 220.417969 L 168.207031 222.660156 C 166.832031 224.941406 165.460938 227.222656 164.101562 229.5 C 163.011719 229.5 129.753906 229.632812 128.425781 229.660156 L 134.128906 220.582031 C 135.757812 217.996094 137.410156 215.425781 139.050781 212.851562 L 143.984375 205.125 L 163.75 174.253906 L 164.777344 172.648438 L 163.75 171.15625 L 146.613281 146.191406 L 129.4375 121.257812 L 120.851562 108.796875 L 112.226562 96.347656 C 106.492188 88.042969 100.734375 79.757812 94.953125 71.484375 C 94.890625 71.390625 94.800781 71.332031 94.691406 71.308594 C 94.578125 71.285156 94.476562 71.304688 94.378906 71.363281 C 94.28125 71.425781 94.21875 71.515625 94.191406 71.628906 C 94.164062 71.742188 94.183594 71.851562 94.242188 71.949219 C 99.621094 80.496094 104.996094 89.039062 110.371094 97.574219 L 118.449219 110.378906 L 126.554688 123.160156 L 142.785156 148.722656 L 158.023438 172.652344 L 138.421875 201.453125 L 133.257812 209.023438 C 131.53125 211.539062 129.820312 214.070312 128.078125 216.585938 L 117.644531 231.65625 L 113.429688 237.75 L 169.058594 238.121094 L 170.234375 236.007812 C 171.949219 232.941406 173.628906 229.851562 175.316406 226.773438 L 176.582031 224.457031 L 177.835938 222.140625 L 180.34375 217.503906 L 185.277344 208.207031 L 187.804688 203.410156 L 190.699219 207.785156 L 193.65625 212.207031 L 196.640625 216.621094 L 199.628906 221.019531 L 202.65625 225.398438 C 204.683594 228.316406 206.742188 231.214844 208.832031 234.089844 C 208.894531 234.179688 208.984375 234.234375 209.089844 234.253906 C 209.195312 234.277344 209.296875 234.257812 209.390625 234.203125 C 209.484375 234.148438 209.546875 234.066406 209.582031 233.960938 C 209.613281 233.859375 209.605469 233.757812 209.558594 233.65625 C 208.054688 230.453125 206.503906 227.261719 204.902344 224.078125 Z M 204.902344 224.078125 " fill-opacity="1" fill-rule="nonzero"/></g><g fill="#49326b" fill-opacity="1"><g transform="translate(146.286504, 286.959075)"><g><path d="M 3.28125 0.25 C 2.625 0.25 2.0625 0.078125 1.59375 -0.265625 C 1.125 -0.609375 0.707031 -1.125 0.34375 -1.8125 L 1.171875 -2.3125 C 1.453125 -1.78125 1.765625 -1.378906 2.109375 -1.109375 C 2.453125 -0.835938 2.816406 -0.703125 3.203125 -0.703125 C 3.535156 -0.703125 3.835938 -0.773438 4.109375 -0.921875 C 4.390625 -1.078125 4.609375 -1.28125 4.765625 -1.53125 C 4.921875 -1.78125 5 -2.054688 5 -2.359375 C 5 -2.648438 4.914062 -2.925781 4.75 -3.1875 C 4.582031 -3.445312 4.335938 -3.710938 4.015625 -3.984375 C 3.703125 -4.265625 3.15625 -4.71875 2.375 -5.34375 C 2.019531 -5.625 1.742188 -5.875 1.546875 -6.09375 C 1.359375 -6.3125 1.210938 -6.546875 1.109375 -6.796875 C 1.015625 -7.046875 0.96875 -7.34375 0.96875 -7.6875 C 0.96875 -8.125 1.066406 -8.515625 1.265625 -8.859375 C 1.472656 -9.210938 1.757812 -9.484375 2.125 -9.671875 C 2.488281 -9.867188 2.882812 -9.96875 3.3125 -9.96875 C 3.851562 -9.96875 4.320312 -9.828125 4.71875 -9.546875 C 5.113281 -9.273438 5.492188 -8.890625 5.859375 -8.390625 L 5.078125 -7.78125 C 4.867188 -8.050781 4.679688 -8.265625 4.515625 -8.421875 C 4.359375 -8.585938 4.175781 -8.71875 3.96875 -8.8125 C 3.769531 -8.914062 3.546875 -8.96875 3.296875 -8.96875 C 3.023438 -8.96875 2.789062 -8.910156 2.59375 -8.796875 C 2.394531 -8.679688 2.242188 -8.53125 2.140625 -8.34375 C 2.035156 -8.15625 1.984375 -7.953125 1.984375 -7.734375 C 1.984375 -7.429688 2.070312 -7.144531 2.25 -6.875 C 2.425781 -6.601562 2.6875 -6.34375 3.03125 -6.09375 C 3.757812 -5.570312 4.316406 -5.140625 4.703125 -4.796875 C 5.097656 -4.453125 5.414062 -4.082031 5.65625 -3.6875 C 5.894531 -3.289062 6.015625 -2.851562 6.015625 -2.375 C 6.015625 -1.914062 5.894531 -1.484375 5.65625 -1.078125 C 5.414062 -0.679688 5.085938 -0.359375 4.671875 -0.109375 C 4.253906 0.128906 3.789062 0.25 3.28125 0.25 Z M 3.28125 0.25 "/></g></g></g><g fill="#49326b" fill-opacity="1"><g transform="translate(163.725738, 286.959075)"><g><path d="M 2.40625 -8.78125 L 0.21875 -8.78125 L 0.21875 -9.734375 L 5.546875 -9.734375 L 5.546875 -8.78125 L 3.390625 -8.78125 L 3.390625 0 L 2.40625 0 Z M 2.40625 -8.78125 "/></g></g></g><g fill="#49326b" fill-opacity="1"><g transform="translate(180.338781, 286.959075)"><g><path d="M 5.890625 0.25 C 4.921875 0.25 4.046875 0.0195312 3.265625 -0.4375 C 2.484375 -0.90625 1.867188 -1.523438 1.421875 -2.296875 C 0.984375 -3.078125 0.765625 -3.921875 0.765625 -4.828125 C 0.765625 -5.773438 0.988281 -6.640625 1.4375 -7.421875 C 1.882812 -8.210938 2.492188 -8.832031 3.265625 -9.28125 C 4.046875 -9.738281 4.894531 -9.96875 5.8125 -9.96875 C 6.78125 -9.96875 7.660156 -9.742188 8.453125 -9.296875 C 9.242188 -8.847656 9.867188 -8.234375 10.328125 -7.453125 C 10.785156 -6.671875 11.015625 -5.804688 11.015625 -4.859375 C 11.015625 -3.921875 10.785156 -3.0625 10.328125 -2.28125 C 9.878906 -1.5 9.265625 -0.878906 8.484375 -0.421875 C 7.703125 0.0234375 6.835938 0.25 5.890625 0.25 Z M 5.859375 -0.703125 C 6.609375 -0.703125 7.300781 -0.878906 7.9375 -1.234375 C 8.570312 -1.597656 9.070312 -2.097656 9.4375 -2.734375 C 9.8125 -3.367188 10 -4.082031 10 -4.875 C 10 -5.664062 9.804688 -6.378906 9.421875 -7.015625 C 9.035156 -7.648438 8.523438 -8.140625 7.890625 -8.484375 C 7.265625 -8.835938 6.585938 -9.015625 5.859375 -9.015625 C 5.148438 -9.015625 4.476562 -8.835938 3.84375 -8.484375 C 3.21875 -8.128906 2.71875 -7.628906 2.34375 -6.984375 C 1.96875 -6.347656 1.78125 -5.628906 1.78125 -4.828125 C 1.78125 -4.046875 1.96875 -3.34375 2.34375 -2.71875 C 2.71875 -2.09375 3.210938 -1.597656 3.828125 -1.234375 C 4.453125 -0.878906 5.128906 -0.703125 5.859375 -0.703125 Z M 5.859375 -0.703125 "/></g></g></g><g fill="#49326b" fill-opacity="1"><g transform="translate(202.951905, 286.959075)"><g><path d="M 3.953125 -9.734375 C 5.066406 -9.734375 5.898438 -9.5 6.453125 -9.03125 C 7.003906 -8.570312 7.28125 -7.941406 7.28125 -7.140625 C 7.28125 -6.554688 7.140625 -6.070312 6.859375 -5.6875 C 6.578125 -5.300781 6.179688 -5.007812 5.671875 -4.8125 C 5.171875 -4.625 4.582031 -4.53125 3.90625 -4.53125 L 7.40625 0 L 6.203125 0 L 2.765625 -4.53125 L 2.15625 -4.53125 L 2.15625 0 L 1.171875 0 L 1.171875 -9.734375 Z M 3.90625 -5.46875 C 4.65625 -5.46875 5.234375 -5.601562 5.640625 -5.875 C 6.054688 -6.144531 6.265625 -6.566406 6.265625 -7.140625 C 6.265625 -7.640625 6.085938 -8.035156 5.734375 -8.328125 C 5.378906 -8.628906 4.847656 -8.78125 4.140625 -8.78125 L 2.15625 -8.78125 L 2.15625 -5.46875 Z M 3.90625 -5.46875 "/></g></g></g><g fill="#49326b" fill-opacity="1"><g transform="translate(221.813278, 286.959075)"><g><path d="M 1.171875 -9.734375 L 6.734375 -9.734375 L 6.734375 -8.796875 L 2.15625 -8.796875 L 2.15625 -5.71875 L 6.734375 -5.71875 L 6.734375 -4.796875 L 2.15625 -4.796875 L 2.15625 -0.953125 L 6.734375 -0.953125 L 6.734375 0 L 1.171875 0 Z M 1.171875 -9.734375 "/></g></g></g></svg>