<svg xmlns="http://www.w3.org/2000/svg" xmlns:xlink="http://www.w3.org/1999/xlink" width="500" zoomAndPan="magnify" viewBox="0 0 375 374.999991" height="500" preserveAspectRatio="xMidYMid meet" version="1.0"><defs><g/><clipPath id="b5936e5769"><path d="M 130 115 L 231 115 L 231 205.367188 L 130 205.367188 Z M 130 115 " clip-rule="nonzero"/></clipPath><clipPath id="c9df9456f5"><path d="M 228 83.914062 L 243 83.914062 L 243 98 L 228 98 Z M 228 83.914062 " clip-rule="nonzero"/></clipPath><clipPath id="e5f16e36c2"><path d="M 232 107 L 244.734375 107 L 244.734375 120 L 232 120 Z M 232 107 " clip-rule="nonzero"/></clipPath></defs><g fill="#53a5e0" fill-opacity="1"><g transform="translate(148.922191, 241.549335)"><g><path d="M 18.375 -6.71875 C 18.644531 -6.050781 18.734375 -5.332031 18.640625 -4.5625 C 18.546875 -3.789062 18.269531 -3.117188 17.8125 -2.546875 C 17.289062 -1.921875 16.640625 -1.460938 15.859375 -1.171875 C 15.078125 -0.890625 14.296875 -0.695312 13.515625 -0.59375 L 13.140625 -0.53125 L 12.890625 -0.453125 C 11.210938 0.148438 9.484375 0.304688 7.703125 0.015625 C 5.929688 -0.265625 4.332031 -0.921875 2.90625 -1.953125 C 2.882812 -1.972656 2.863281 -1.992188 2.84375 -2.015625 C 2.820312 -2.035156 2.804688 -2.050781 2.796875 -2.0625 C 2.703125 -2.101562 2.601562 -2.140625 2.5 -2.171875 C 2.40625 -2.210938 2.316406 -2.238281 2.234375 -2.25 C 1.992188 -2.34375 1.859375 -2.488281 1.828125 -2.6875 C 1.804688 -2.882812 1.859375 -3.054688 1.984375 -3.203125 C 2.109375 -3.359375 2.289062 -3.398438 2.53125 -3.328125 C 3.488281 -2.984375 4.46875 -2.691406 5.46875 -2.453125 C 6.476562 -2.210938 7.492188 -2.015625 8.515625 -1.859375 C 9.210938 -1.742188 9.921875 -1.65625 10.640625 -1.59375 C 11.367188 -1.53125 12.09375 -1.535156 12.8125 -1.609375 C 12.957031 -1.660156 13.09375 -1.71875 13.21875 -1.78125 C 13.34375 -1.84375 13.46875 -1.910156 13.59375 -1.984375 C 14.164062 -2.304688 14.742188 -2.707031 15.328125 -3.1875 C 15.910156 -3.675781 16.296875 -4.253906 16.484375 -4.921875 L 16.4375 -5 C 16.40625 -5.070312 16.390625 -5.113281 16.390625 -5.125 L 16.359375 -5.125 C 16.359375 -5.144531 16.351562 -5.160156 16.34375 -5.171875 C 16.332031 -5.179688 16.328125 -5.191406 16.328125 -5.203125 C 16.046875 -5.742188 15.671875 -6.175781 15.203125 -6.5 C 14.910156 -6.695312 14.59375 -6.863281 14.25 -7 C 13.914062 -7.132812 13.585938 -7.242188 13.265625 -7.328125 C 12.546875 -7.523438 11.820312 -7.691406 11.09375 -7.828125 C 10.375 -7.960938 9.648438 -8.117188 8.921875 -8.296875 C 8.222656 -8.472656 7.523438 -8.6875 6.828125 -8.9375 C 6.140625 -9.1875 5.507812 -9.53125 4.9375 -9.96875 C 4.582031 -10.25 4.28125 -10.535156 4.03125 -10.828125 C 3.65625 -11.054688 3.304688 -11.34375 2.984375 -11.6875 C 2.617188 -12.132812 2.394531 -12.617188 2.3125 -13.140625 C 2.1875 -13.515625 2.132812 -13.898438 2.15625 -14.296875 C 2.238281 -15.054688 2.523438 -15.753906 3.015625 -16.390625 C 3.515625 -17.023438 4.113281 -17.535156 4.8125 -17.921875 C 5.613281 -18.328125 6.476562 -18.601562 7.40625 -18.75 C 8.34375 -18.894531 9.257812 -18.945312 10.15625 -18.90625 C 11.132812 -18.882812 12.054688 -18.722656 12.921875 -18.421875 C 13.796875 -18.117188 14.671875 -17.78125 15.546875 -17.40625 C 15.722656 -17.332031 15.820312 -17.226562 15.84375 -17.09375 C 15.863281 -16.957031 15.828125 -16.828125 15.734375 -16.703125 C 15.773438 -16.703125 15.796875 -16.695312 15.796875 -16.6875 C 15.804688 -16.675781 15.820312 -16.671875 15.84375 -16.671875 C 16.082031 -16.609375 16.210938 -16.472656 16.234375 -16.265625 C 16.265625 -16.054688 16.21875 -15.875 16.09375 -15.71875 C 15.96875 -15.570312 15.785156 -15.535156 15.546875 -15.609375 C 15.421875 -15.640625 15.300781 -15.671875 15.1875 -15.703125 C 15.070312 -15.742188 14.941406 -15.78125 14.796875 -15.8125 C 14.648438 -15.582031 14.445312 -15.503906 14.1875 -15.578125 C 13.675781 -15.734375 13.023438 -15.898438 12.234375 -16.078125 C 11.453125 -16.265625 10.625 -16.398438 9.75 -16.484375 C 8.875 -16.578125 8.046875 -16.566406 7.265625 -16.453125 C 6.484375 -16.335938 5.84375 -16.070312 5.34375 -15.65625 C 4.84375 -15.25 4.582031 -14.625 4.5625 -13.78125 C 4.550781 -13.601562 4.476562 -13.46875 4.34375 -13.375 C 4.21875 -13.28125 4.085938 -13.242188 3.953125 -13.265625 C 4.035156 -13.054688 4.125 -12.847656 4.21875 -12.640625 C 4.320312 -12.429688 4.4375 -12.226562 4.5625 -12.03125 C 4.613281 -12.007812 4.664062 -11.976562 4.71875 -11.9375 C 4.78125 -11.894531 4.835938 -11.851562 4.890625 -11.8125 C 5.140625 -11.957031 5.363281 -11.929688 5.5625 -11.734375 C 5.71875 -11.554688 5.878906 -11.394531 6.046875 -11.25 C 6.941406 -10.914062 7.878906 -10.675781 8.859375 -10.53125 C 9.609375 -10.40625 10.460938 -10.289062 11.421875 -10.1875 C 12.378906 -10.09375 13.320312 -9.929688 14.25 -9.703125 C 15.1875 -9.484375 16.023438 -9.140625 16.765625 -8.671875 C 17.515625 -8.210938 18.050781 -7.5625 18.375 -6.71875 Z M 18.375 -6.71875 "/></g></g></g><g fill="#53a5e0" fill-opacity="1"><g transform="translate(169.44282, 241.549335)"><g><path d="M 20.703125 -17.109375 C 20.921875 -17.109375 21.066406 -17.019531 21.140625 -16.84375 C 21.210938 -16.675781 21.210938 -16.507812 21.140625 -16.34375 C 21.066406 -16.1875 20.921875 -16.109375 20.703125 -16.109375 L 12.03125 -16.28125 C 12.070312 -15.457031 12.113281 -14.628906 12.15625 -13.796875 C 12.195312 -12.972656 12.226562 -12.144531 12.25 -11.3125 C 12.332031 -10.875 12.398438 -10.441406 12.453125 -10.015625 C 12.515625 -9.585938 12.570312 -9.160156 12.625 -8.734375 C 12.769531 -7.535156 12.835938 -6.335938 12.828125 -5.140625 C 12.816406 -3.953125 12.859375 -2.757812 12.953125 -1.5625 C 12.984375 -1.382812 12.941406 -1.253906 12.828125 -1.171875 C 12.710938 -1.085938 12.582031 -1.054688 12.4375 -1.078125 C 12.4375 -1.003906 12.441406 -0.929688 12.453125 -0.859375 C 12.460938 -0.785156 12.472656 -0.707031 12.484375 -0.625 C 12.523438 -0.425781 12.46875 -0.265625 12.3125 -0.140625 C 12.164062 -0.0234375 12.003906 0.0195312 11.828125 0 C 11.660156 -0.03125 11.554688 -0.144531 11.515625 -0.34375 L 11.515625 -0.4375 C 11.390625 -0.300781 11.222656 -0.234375 11.015625 -0.234375 C 10.816406 -0.234375 10.695312 -0.351562 10.65625 -0.59375 C 10.375 -2.332031 10.207031 -4.066406 10.15625 -5.796875 C 10.113281 -7.535156 10.125 -9.28125 10.1875 -11.03125 C 10.25 -12.789062 10.28125 -14.546875 10.28125 -16.296875 C 7.21875 -16.359375 4.15625 -16.390625 1.09375 -16.390625 C 0.882812 -16.390625 0.742188 -16.472656 0.671875 -16.640625 C 0.597656 -16.804688 0.597656 -16.972656 0.671875 -17.140625 C 0.742188 -17.316406 0.882812 -17.40625 1.09375 -17.40625 C 1.226562 -17.40625 1.347656 -17.410156 1.453125 -17.421875 C 1.554688 -17.429688 1.660156 -17.441406 1.765625 -17.453125 C 1.734375 -17.597656 1.773438 -17.753906 1.890625 -17.921875 C 2.003906 -18.097656 2.171875 -18.164062 2.390625 -18.125 C 3.835938 -17.925781 5.289062 -17.859375 6.75 -17.921875 C 8.207031 -17.984375 9.671875 -18.078125 11.140625 -18.203125 C 11.335938 -18.347656 11.523438 -18.359375 11.703125 -18.234375 C 13.191406 -18.359375 14.664062 -18.441406 16.125 -18.484375 C 17.582031 -18.535156 19.046875 -18.4375 20.515625 -18.1875 C 20.710938 -18.144531 20.828125 -18.003906 20.859375 -17.765625 C 20.898438 -17.523438 20.820312 -17.359375 20.625 -17.265625 L 20.28125 -17.109375 Z M 20.703125 -17.109375 "/></g></g></g><g fill="#53a5e0" fill-opacity="1"><g transform="translate(191.252705, 241.549335)"><g><path d="M 20.59375 -16.4375 C 21.550781 -15.664062 22.316406 -14.75 22.890625 -13.6875 C 23.472656 -12.632812 23.847656 -11.523438 24.015625 -10.359375 C 24.191406 -9.203125 24.128906 -8.050781 23.828125 -6.90625 C 23.535156 -5.757812 22.96875 -4.710938 22.125 -3.765625 C 21.25 -2.742188 20.191406 -1.925781 18.953125 -1.3125 C 17.722656 -0.707031 16.414062 -0.304688 15.03125 -0.109375 C 13.644531 0.0859375 12.257812 0.0703125 10.875 -0.15625 C 9.5 -0.394531 8.226562 -0.851562 7.0625 -1.53125 C 5.738281 -2.125 4.609375 -2.960938 3.671875 -4.046875 C 2.742188 -5.128906 2.164062 -6.441406 1.9375 -7.984375 C 1.8125 -8.890625 1.789062 -9.820312 1.875 -10.78125 C 1.96875 -11.738281 2.203125 -12.648438 2.578125 -13.515625 C 2.722656 -14.035156 2.921875 -14.519531 3.171875 -14.96875 C 3.421875 -15.425781 3.734375 -15.851562 4.109375 -16.25 C 4.910156 -17.09375 5.8125 -17.726562 6.8125 -18.15625 C 7.820312 -18.582031 8.882812 -18.84375 10 -18.9375 C 11.125 -19.039062 12.238281 -18.992188 13.34375 -18.796875 C 14.65625 -18.816406 15.945312 -18.628906 17.21875 -18.234375 C 18.488281 -17.835938 19.613281 -17.238281 20.59375 -16.4375 Z M 20.46875 -5.109375 C 21.125 -5.890625 21.59375 -6.816406 21.875 -7.890625 C 22.15625 -8.972656 22.144531 -10.015625 21.84375 -11.015625 C 21.5 -12.179688 20.890625 -13.21875 20.015625 -14.125 C 19.148438 -15.039062 18.132812 -15.800781 16.96875 -16.40625 C 15.8125 -17.019531 14.597656 -17.441406 13.328125 -17.671875 C 13.054688 -17.671875 12.785156 -17.65625 12.515625 -17.625 C 12.242188 -17.601562 11.984375 -17.578125 11.734375 -17.546875 C 11.503906 -17.503906 11.269531 -17.453125 11.03125 -17.390625 C 10.800781 -17.328125 10.570312 -17.257812 10.34375 -17.1875 C 10.375 -17.03125 10.34375 -16.878906 10.25 -16.734375 C 10.164062 -16.585938 10.015625 -16.523438 9.796875 -16.546875 C 9.660156 -16.566406 9.515625 -16.578125 9.359375 -16.578125 C 9.203125 -16.585938 9.054688 -16.59375 8.921875 -16.59375 C 7.179688 -15.6875 5.816406 -14.335938 4.828125 -12.546875 C 4.703125 -12.304688 4.539062 -12.203125 4.34375 -12.234375 C 4.15625 -12.273438 3.988281 -12.382812 3.84375 -12.5625 C 3.695312 -12.75 3.644531 -12.929688 3.6875 -13.109375 C 3.363281 -11.921875 3.269531 -10.664062 3.40625 -9.34375 C 3.550781 -8.019531 3.910156 -6.800781 4.484375 -5.6875 C 4.859375 -4.957031 5.332031 -4.3125 5.90625 -3.75 C 6.476562 -3.195312 7.113281 -2.734375 7.8125 -2.359375 C 8.976562 -1.910156 10.222656 -1.664062 11.546875 -1.625 C 12.867188 -1.582031 14.113281 -1.710938 15.28125 -2.015625 C 16.28125 -2.265625 17.234375 -2.644531 18.140625 -3.15625 C 19.046875 -3.664062 19.820312 -4.316406 20.46875 -5.109375 Z M 20.46875 -5.109375 "/></g></g></g><g fill="#53a5e0" fill-opacity="1"><g transform="translate(217.198943, 241.549335)"><g><path d="M 22.265625 -1.390625 C 22.554688 -1.390625 22.75 -1.273438 22.84375 -1.046875 C 22.9375 -0.828125 22.9375 -0.601562 22.84375 -0.375 C 22.75 -0.15625 22.554688 -0.046875 22.265625 -0.046875 C 21.335938 -0.046875 20.46875 -0.253906 19.65625 -0.671875 C 18.851562 -1.097656 18.109375 -1.628906 17.421875 -2.265625 C 16.734375 -2.898438 16.070312 -3.53125 15.4375 -4.15625 C 15.03125 -4.59375 14.613281 -5.03125 14.1875 -5.46875 C 13.769531 -5.90625 13.320312 -6.296875 12.84375 -6.640625 C 12.59375 -6.835938 12.328125 -7.019531 12.046875 -7.1875 C 11.765625 -7.351562 11.472656 -7.472656 11.171875 -7.546875 C 10.367188 -7.523438 9.492188 -7.546875 8.546875 -7.609375 C 7.609375 -7.671875 6.640625 -7.757812 5.640625 -7.875 L 5.640625 -7.8125 C 5.671875 -6.914062 5.707031 -6.035156 5.75 -5.171875 C 5.800781 -4.304688 5.785156 -3.453125 5.703125 -2.609375 C 5.628906 -1.765625 5.410156 -0.910156 5.046875 -0.046875 C 4.960938 0.160156 4.765625 0.265625 4.453125 0.265625 C 4.148438 0.265625 3.957031 0.160156 3.875 -0.046875 C 3.457031 -1.003906 3.210938 -1.96875 3.140625 -2.9375 C 3.066406 -3.914062 3.070312 -4.894531 3.15625 -5.875 C 3.238281 -6.863281 3.304688 -7.851562 3.359375 -8.84375 C 3.429688 -10.320312 3.425781 -11.71875 3.34375 -13.03125 C 3.257812 -14.351562 3.238281 -15.757812 3.28125 -17.25 C 3.289062 -17.476562 3.375 -17.644531 3.53125 -17.75 C 3.695312 -17.863281 3.878906 -17.910156 4.078125 -17.890625 C 4.273438 -17.867188 4.421875 -17.78125 4.515625 -17.625 C 4.585938 -17.65625 4.625 -17.671875 4.625 -17.671875 C 5.40625 -18.085938 6.257812 -18.347656 7.1875 -18.453125 C 8.125 -18.554688 9.03125 -18.601562 9.90625 -18.59375 C 10.976562 -18.570312 12.054688 -18.484375 13.140625 -18.328125 C 14.222656 -18.179688 15.285156 -17.945312 16.328125 -17.625 C 17.191406 -17.351562 18.066406 -16.992188 18.953125 -16.546875 C 19.835938 -16.097656 20.53125 -15.472656 21.03125 -14.671875 C 21.375 -14.109375 21.550781 -13.5 21.5625 -12.84375 C 21.582031 -12.195312 21.457031 -11.582031 21.1875 -11 C 20.925781 -10.414062 20.539062 -9.945312 20.03125 -9.59375 C 19.332031 -9.09375 18.523438 -8.707031 17.609375 -8.4375 C 16.703125 -8.164062 15.765625 -7.96875 14.796875 -7.84375 C 15.015625 -7.738281 15.226562 -7.601562 15.4375 -7.4375 C 15.925781 -7.101562 16.351562 -6.707031 16.71875 -6.25 C 17.082031 -5.789062 17.460938 -5.335938 17.859375 -4.890625 C 18.234375 -4.492188 18.578125 -4.144531 18.890625 -3.84375 C 19.203125 -3.550781 19.566406 -3.140625 19.984375 -2.609375 C 20.160156 -2.367188 20.460938 -2.109375 20.890625 -1.828125 C 21.328125 -1.554688 21.785156 -1.410156 22.265625 -1.390625 Z M 5.53125 -15.25 C 5.675781 -14.195312 5.726562 -13.195312 5.6875 -12.25 C 5.65625 -11.3125 5.628906 -10.34375 5.609375 -9.34375 C 6.628906 -9.269531 7.660156 -9.191406 8.703125 -9.109375 C 9.742188 -9.035156 10.78125 -9.007812 11.8125 -9.03125 C 12.945312 -9.113281 14.054688 -9.289062 15.140625 -9.5625 C 16.222656 -9.84375 17.15625 -10.269531 17.9375 -10.84375 C 18.15625 -11.007812 18.351562 -11.207031 18.53125 -11.4375 C 18.707031 -11.675781 18.832031 -11.921875 18.90625 -12.171875 C 19.03125 -12.492188 19.066406 -12.742188 19.015625 -12.921875 C 18.941406 -13.222656 18.785156 -13.488281 18.546875 -13.71875 C 18.316406 -13.957031 18.050781 -14.164062 17.75 -14.34375 C 16.84375 -14.894531 15.847656 -15.304688 14.765625 -15.578125 C 13.679688 -15.847656 12.609375 -16.046875 11.546875 -16.171875 C 10.566406 -16.296875 9.550781 -16.382812 8.5 -16.4375 C 7.457031 -16.488281 6.429688 -16.414062 5.421875 -16.21875 C 5.296875 -16.207031 5.273438 -16.09375 5.359375 -15.875 C 5.453125 -15.65625 5.507812 -15.445312 5.53125 -15.25 Z M 5.53125 -15.25 "/></g></g></g><g fill="#53a5e0" fill-opacity="1"><g transform="translate(241.103864, 241.549335)"><g><path d="M 19.09375 -1.53125 C 19.34375 -1.425781 19.414062 -1.25 19.3125 -1 C 19.21875 -0.757812 19.066406 -0.632812 18.859375 -0.625 C 18.785156 -0.625 18.722656 -0.617188 18.671875 -0.609375 C 18.617188 -0.597656 18.554688 -0.59375 18.484375 -0.59375 C 18.429688 -0.375 18.273438 -0.265625 18.015625 -0.265625 C 17.429688 -0.304688 16.847656 -0.335938 16.265625 -0.359375 C 15.679688 -0.390625 15.09375 -0.421875 14.5 -0.453125 C 13.476562 -0.492188 12.457031 -0.5 11.4375 -0.46875 C 10.414062 -0.445312 9.40625 -0.363281 8.40625 -0.21875 L 7.8125 -0.140625 C 7.632812 -0.117188 7.488281 -0.164062 7.375 -0.28125 C 7.269531 -0.394531 7.210938 -0.515625 7.203125 -0.640625 C 6.910156 -0.679688 6.625 -0.722656 6.34375 -0.765625 C 6.070312 -0.804688 5.789062 -0.863281 5.5 -0.9375 C 5.46875 -0.8125 5.382812 -0.722656 5.25 -0.671875 C 5.113281 -0.617188 4.984375 -0.609375 4.859375 -0.640625 C 4.835938 -0.484375 4.742188 -0.375 4.578125 -0.3125 C 4.421875 -0.257812 4.265625 -0.273438 4.109375 -0.359375 C 3.960938 -0.441406 3.882812 -0.582031 3.875 -0.78125 C 3.75 -2.53125 3.625 -4.253906 3.5 -5.953125 C 3.382812 -7.660156 3.3125 -9.359375 3.28125 -11.046875 C 3.132812 -11.171875 3.070312 -11.328125 3.09375 -11.515625 L 3.25 -12.625 C 3.25 -13.394531 3.253906 -14.171875 3.265625 -14.953125 C 3.285156 -15.742188 3.328125 -16.535156 3.390625 -17.328125 C 3.390625 -17.429688 3.414062 -17.519531 3.46875 -17.59375 C 3.46875 -17.75 3.53125 -17.890625 3.65625 -18.015625 C 3.90625 -18.273438 4.226562 -18.398438 4.625 -18.390625 C 5.03125 -18.378906 5.40625 -18.375 5.75 -18.375 C 6.644531 -18.375 7.539062 -18.328125 8.4375 -18.234375 C 9.332031 -18.148438 10.21875 -18.132812 11.09375 -18.1875 C 11.820312 -18.21875 12.550781 -18.28125 13.28125 -18.375 C 14.007812 -18.476562 14.726562 -18.503906 15.4375 -18.453125 C 15.601562 -18.453125 15.726562 -18.390625 15.8125 -18.265625 C 16.625 -18.242188 17.429688 -18.160156 18.234375 -18.015625 C 18.429688 -17.984375 18.546875 -17.882812 18.578125 -17.71875 C 18.617188 -17.5625 18.59375 -17.40625 18.5 -17.25 C 18.414062 -17.101562 18.285156 -17.03125 18.109375 -17.03125 C 17.171875 -17.03125 16.238281 -16.992188 15.3125 -16.921875 C 14.394531 -16.847656 13.476562 -16.765625 12.5625 -16.671875 C 11.8125 -16.535156 11.050781 -16.414062 10.28125 -16.3125 C 9.507812 -16.21875 8.742188 -16.132812 7.984375 -16.0625 C 7.992188 -15.9375 7.957031 -15.8125 7.875 -15.6875 C 7.800781 -15.5625 7.675781 -15.5 7.5 -15.5 C 6.726562 -15.53125 5.945312 -15.582031 5.15625 -15.65625 C 5.257812 -15.257812 5.34375 -14.859375 5.40625 -14.453125 C 5.46875 -13.898438 5.503906 -13.382812 5.515625 -12.90625 C 5.523438 -12.425781 5.53125 -11.898438 5.53125 -11.328125 C 5.53125 -11.140625 5.429688 -10.988281 5.234375 -10.875 C 5.273438 -10.695312 5.296875 -10.519531 5.296875 -10.34375 C 5.304688 -10.175781 5.320312 -9.992188 5.34375 -9.796875 C 6.289062 -9.785156 7.242188 -9.816406 8.203125 -9.890625 C 9.160156 -9.972656 10.113281 -9.972656 11.0625 -9.890625 C 11.238281 -9.867188 11.367188 -9.800781 11.453125 -9.6875 C 11.535156 -9.570312 11.554688 -9.441406 11.515625 -9.296875 C 11.679688 -9.171875 11.738281 -8.988281 11.6875 -8.75 C 11.632812 -8.519531 11.484375 -8.394531 11.234375 -8.375 C 10.617188 -8.363281 10.003906 -8.3125 9.390625 -8.21875 C 8.785156 -8.125 8.1875 -8.0625 7.59375 -8.03125 C 7.238281 -7.976562 6.882812 -7.925781 6.53125 -7.875 C 6.1875 -7.832031 5.835938 -7.796875 5.484375 -7.765625 C 5.515625 -6.816406 5.53125 -5.863281 5.53125 -4.90625 C 5.53125 -3.945312 5.53125 -2.972656 5.53125 -1.984375 C 5.601562 -2.054688 5.71875 -2.09375 5.875 -2.09375 C 6.382812 -2.0625 6.890625 -2.015625 7.390625 -1.953125 C 7.890625 -1.898438 8.390625 -1.859375 8.890625 -1.828125 C 8.960938 -1.898438 9.0625 -1.9375 9.1875 -1.9375 L 11.984375 -1.9375 C 13.179688 -2.144531 14.378906 -2.265625 15.578125 -2.296875 C 16.773438 -2.328125 17.945312 -2.070312 19.09375 -1.53125 Z M 19.09375 -1.53125 "/></g></g></g><g clip-path="url(#b5936e5769)"><path fill="#050a30" d="M 198.605469 144.027344 L 187.761719 144.027344 L 187.761719 133.183594 L 198.605469 133.183594 Z M 168.679688 189.324219 C 170.988281 189.324219 172.863281 191.199219 172.863281 193.507812 C 172.863281 195.816406 170.988281 197.6875 168.679688 197.6875 C 166.375 197.6875 164.5 195.816406 164.5 193.507812 C 164.5 191.199219 166.375 189.324219 168.679688 189.324219 Z M 200.5 189.324219 C 202.808594 189.324219 204.679688 191.199219 204.679688 193.507812 C 204.679688 195.816406 202.808594 197.6875 200.5 197.6875 C 198.191406 197.6875 196.316406 195.816406 196.316406 193.507812 C 196.316406 191.199219 198.191406 189.324219 200.5 189.324219 Z M 222.425781 138.515625 L 222.425781 129.449219 L 217.128906 129.449219 L 217.128906 136.15625 L 203.398438 136.15625 L 203.398438 129.449219 L 154.695312 129.449219 L 150.3125 117.859375 C 149.761719 116.410156 148.371094 115.449219 146.820312 115.449219 L 133.757812 115.449219 C 131.695312 115.449219 130.023438 117.121094 130.023438 119.183594 C 130.023438 121.242188 131.695312 122.914062 133.757812 122.914062 L 144.238281 122.914062 L 146.714844 129.449219 L 145.820312 129.449219 C 143.761719 129.449219 142.089844 131.121094 142.089844 133.183594 C 142.089844 135.242188 143.761719 136.914062 145.820312 136.914062 L 149.539062 136.914062 L 161.503906 168.53125 L 156.980469 180.894531 C 156.5625 182.039062 156.726562 183.316406 157.425781 184.3125 C 158.011719 185.152344 158.910156 185.703125 159.90625 185.859375 C 158.121094 187.90625 157.035156 190.582031 157.035156 193.507812 C 157.035156 199.933594 162.257812 205.15625 168.679688 205.15625 C 175.101562 205.15625 180.328125 199.933594 180.328125 193.507812 C 180.328125 190.605469 179.261719 187.949219 177.5 185.910156 L 191.679688 185.910156 C 189.917969 187.949219 188.847656 190.605469 188.847656 193.507812 C 188.847656 199.933594 194.074219 205.15625 200.5 205.15625 C 206.921875 205.15625 212.148438 199.933594 212.148438 193.507812 C 212.148438 190.605469 211.078125 187.949219 209.316406 185.910156 L 212.148438 185.910156 C 214.207031 185.910156 215.878906 184.238281 215.878906 182.175781 C 215.878906 180.113281 214.207031 178.445312 212.148438 178.445312 L 165.828125 178.445312 L 168.09375 172.242188 L 214.148438 172.242188 C 215.667969 172.242188 217.039062 171.320312 217.609375 169.914062 L 230.34375 138.515625 L 222.425781 138.515625 " fill-opacity="1" fill-rule="nonzero"/></g><g clip-path="url(#c9df9456f5)"><path fill="#050a30" d="M 242.238281 97.597656 L 228.507812 97.597656 L 228.507812 83.867188 L 242.238281 83.867188 L 242.238281 97.597656 " fill-opacity="1" fill-rule="nonzero"/></g><path fill="#050a30" d="M 222 108.195312 L 212.257812 108.195312 L 212.257812 98.453125 L 222 98.453125 L 222 108.195312 " fill-opacity="1" fill-rule="nonzero"/><path fill="#53a5e0" d="M 206.914062 120.789062 L 193.183594 120.789062 L 193.183594 107.058594 L 206.914062 107.058594 L 206.914062 120.789062 " fill-opacity="1" fill-rule="nonzero"/><g clip-path="url(#e5f16e36c2)"><path fill="#53a5e0" d="M 244.96875 119.183594 L 232.84375 119.183594 L 232.84375 107.058594 L 244.96875 107.058594 L 244.96875 119.183594 " fill-opacity="1" fill-rule="nonzero"/></g><g fill="#050a30" fill-opacity="1"><g transform="translate(105.825203, 237.398012)"><g><path d="M 9.59375 0 L 0.9375 0 L 12.125 -15.65625 L 12.125 -17.53125 L 0.9375 -33.140625 L 9.59375 -33.140625 L 18.515625 -20.4375 L 27.5 -33.140625 L 36.140625 -33.140625 L 24.90625 -17.53125 L 24.90625 -15.65625 L 36.140625 0 L 27.5 0 L 18.515625 -12.734375 Z M 9.59375 0 "/></g></g></g></svg>