<svg xmlns="http://www.w3.org/2000/svg" xmlns:xlink="http://www.w3.org/1999/xlink" width="500" zoomAndPan="magnify" viewBox="0 0 375 374.999991" height="500" preserveAspectRatio="xMidYMid meet" version="1.0"><defs><clipPath id="19d6fc80c2"><path d="M 109.035156 146.5 L 148.433594 146.5 L 148.433594 185.898438 L 109.035156 185.898438 Z M 109.035156 146.5 " clip-rule="nonzero"/></clipPath><clipPath id="6988d3d41b"><path d="M 128.734375 146.5 C 117.855469 146.5 109.035156 155.320312 109.035156 166.199219 C 109.035156 177.078125 117.855469 185.898438 128.734375 185.898438 C 139.617188 185.898438 148.433594 177.078125 148.433594 166.199219 C 148.433594 155.320312 139.617188 146.5 128.734375 146.5 Z M 128.734375 146.5 " clip-rule="nonzero"/></clipPath><clipPath id="d142a85b2b"><path d="M 118 157.988281 L 139.734375 157.988281 L 139.734375 174.488281 L 118 174.488281 Z M 118 157.988281 " clip-rule="nonzero"/></clipPath><clipPath id="e12aacd32a"><path d="M 37.5 43.632812 L 345.921875 43.632812 L 345.921875 352.054688 L 37.5 352.054688 Z M 37.5 43.632812 " clip-rule="nonzero"/></clipPath><clipPath id="cb732c510f"><path d="M 191.710938 43.632812 C 106.542969 43.632812 37.5 112.675781 37.5 197.84375 C 37.5 283.011719 106.542969 352.054688 191.710938 352.054688 C 276.878906 352.054688 345.921875 283.011719 345.921875 197.84375 C 345.921875 112.675781 276.878906 43.632812 191.710938 43.632812 Z M 191.710938 43.632812 " clip-rule="nonzero"/></clipPath><clipPath id="cfba41c4e1"><path d="M 209 231 L 242 231 L 242 262.765625 L 209 262.765625 Z M 209 231 " clip-rule="nonzero"/></clipPath><clipPath id="4c0b72fc2e"><path d="M 146 231 L 179 231 L 179 262.765625 L 146 262.765625 Z M 146 231 " clip-rule="nonzero"/></clipPath><clipPath id="d7b35e3859"><path d="M 109.035156 124 L 242 124 L 242 226 L 109.035156 226 Z M 109.035156 124 " clip-rule="nonzero"/></clipPath><clipPath id="5da6a2e80f"><path d="M 190 112.015625 L 259.785156 112.015625 L 259.785156 182 L 190 182 Z M 190 112.015625 " clip-rule="nonzero"/></clipPath></defs><rect x="-37.5" width="450" fill="#ffffff" y="-37.499999" height="449.999989" fill-opacity="1"/><rect x="-37.5" width="450" fill="#ffffff" y="-37.499999" height="449.999989" fill-opacity="1"/><g clip-path="url(#19d6fc80c2)"><g clip-path="url(#6988d3d41b)"><path fill="#ffffff" d="M 109.035156 146.5 L 148.433594 146.5 L 148.433594 185.898438 L 109.035156 185.898438 Z M 109.035156 146.5 " fill-opacity="1" fill-rule="nonzero"/></g></g><g clip-path="url(#d142a85b2b)"><path fill="#ffffff" d="M 138.085938 157.996094 C 137.75 158.003906 137.464844 158.128906 137.226562 158.371094 L 124.359375 171.242188 L 120.242188 167.125 C 120.125 167.003906 119.992188 166.910156 119.835938 166.84375 C 119.683594 166.777344 119.519531 166.742188 119.351562 166.738281 C 119.183594 166.738281 119.023438 166.769531 118.867188 166.832031 C 118.710938 166.894531 118.574219 166.988281 118.457031 167.105469 C 118.335938 167.226562 118.246094 167.363281 118.183594 167.519531 C 118.121094 167.671875 118.089844 167.835938 118.089844 168.003906 C 118.089844 168.171875 118.125 168.332031 118.191406 168.484375 C 118.257812 168.640625 118.351562 168.777344 118.472656 168.890625 L 123.476562 173.894531 C 123.59375 174.011719 123.726562 174.101562 123.882812 174.164062 C 124.035156 174.226562 124.195312 174.257812 124.359375 174.257812 C 124.523438 174.257812 124.683594 174.226562 124.835938 174.164062 C 124.992188 174.101562 125.125 174.011719 125.242188 173.894531 L 138.996094 160.140625 C 139.179688 159.960938 139.296875 159.746094 139.351562 159.492188 C 139.402344 159.238281 139.375 158.992188 139.277344 158.757812 C 139.175781 158.519531 139.015625 158.332031 138.800781 158.191406 C 138.582031 158.050781 138.34375 157.988281 138.085938 157.996094 Z M 138.085938 157.996094 " fill-opacity="1" fill-rule="nonzero"/></g><g clip-path="url(#e12aacd32a)"><g clip-path="url(#cb732c510f)"><path fill="#053262" d="M 37.5 43.632812 L 345.921875 43.632812 L 345.921875 352.054688 L 37.5 352.054688 Z M 37.5 43.632812 " fill-opacity="1" fill-rule="nonzero"/></g></g><g clip-path="url(#cfba41c4e1)"><path fill="#ffffff" d="M 241.125 247.25 C 241.125 248.285156 241.027344 249.308594 240.824219 250.320312 C 240.621094 251.332031 240.324219 252.316406 239.929688 253.269531 C 239.535156 254.222656 239.050781 255.128906 238.476562 255.988281 C 237.902344 256.847656 237.25 257.640625 236.519531 258.371094 C 235.789062 259.101562 234.996094 259.753906 234.136719 260.328125 C 233.277344 260.898438 232.371094 261.382812 231.417969 261.78125 C 230.464844 262.175781 229.480469 262.472656 228.46875 262.675781 C 227.457031 262.875 226.433594 262.976562 225.402344 262.976562 C 224.367188 262.976562 223.347656 262.875 222.332031 262.675781 C 221.320312 262.472656 220.335938 262.175781 219.382812 261.78125 C 218.429688 261.382812 217.523438 260.898438 216.664062 260.328125 C 215.804688 259.753906 215.011719 259.101562 214.28125 258.371094 C 213.550781 257.640625 212.898438 256.847656 212.328125 255.988281 C 211.753906 255.128906 211.269531 254.222656 210.875 253.269531 C 210.476562 252.316406 210.179688 251.332031 209.976562 250.320312 C 209.777344 249.308594 209.675781 248.285156 209.675781 247.25 C 209.675781 246.21875 209.777344 245.195312 209.976562 244.183594 C 210.179688 243.171875 210.476562 242.1875 210.875 241.234375 C 211.269531 240.28125 211.753906 239.375 212.328125 238.515625 C 212.898438 237.65625 213.550781 236.863281 214.28125 236.132812 C 215.011719 235.402344 215.804688 234.75 216.664062 234.175781 C 217.523438 233.601562 218.429688 233.117188 219.382812 232.722656 C 220.335938 232.328125 221.320312 232.03125 222.332031 231.828125 C 223.347656 231.628906 224.367188 231.527344 225.402344 231.527344 C 226.433594 231.527344 227.457031 231.628906 228.46875 231.828125 C 229.480469 232.03125 230.464844 232.328125 231.417969 232.722656 C 232.371094 233.117188 233.277344 233.601562 234.136719 234.175781 C 234.996094 234.75 235.789062 235.402344 236.519531 236.132812 C 237.25 236.863281 237.902344 237.65625 238.476562 238.515625 C 239.050781 239.375 239.535156 240.28125 239.929688 241.234375 C 240.324219 242.1875 240.621094 243.171875 240.824219 244.183594 C 241.027344 245.195312 241.125 246.21875 241.125 247.25 Z M 241.125 247.25 " fill-opacity="1" fill-rule="nonzero"/></g><g clip-path="url(#4c0b72fc2e)"><path fill="#ffffff" d="M 178.226562 247.25 C 178.226562 248.285156 178.125 249.308594 177.921875 250.320312 C 177.722656 251.332031 177.425781 252.316406 177.027344 253.269531 C 176.632812 254.222656 176.148438 255.128906 175.574219 255.988281 C 175.003906 256.847656 174.351562 257.640625 173.621094 258.371094 C 172.890625 259.101562 172.097656 259.753906 171.238281 260.328125 C 170.378906 260.898438 169.472656 261.382812 168.519531 261.78125 C 167.566406 262.175781 166.582031 262.472656 165.570312 262.675781 C 164.554688 262.875 163.535156 262.976562 162.5 262.976562 C 161.46875 262.976562 160.445312 262.875 159.433594 262.675781 C 158.421875 262.472656 157.4375 262.175781 156.484375 261.78125 C 155.527344 261.382812 154.621094 260.898438 153.765625 260.328125 C 152.90625 259.753906 152.113281 259.101562 151.382812 258.371094 C 150.652344 257.640625 150 256.847656 149.425781 255.988281 C 148.851562 255.128906 148.367188 254.222656 147.972656 253.269531 C 147.578125 252.316406 147.28125 251.332031 147.078125 250.320312 C 146.875 249.308594 146.777344 248.285156 146.777344 247.25 C 146.777344 246.21875 146.875 245.195312 147.078125 244.183594 C 147.28125 243.171875 147.578125 242.1875 147.972656 241.234375 C 148.367188 240.28125 148.851562 239.375 149.425781 238.515625 C 150 237.65625 150.652344 236.863281 151.382812 236.132812 C 152.113281 235.402344 152.90625 234.75 153.765625 234.175781 C 154.621094 233.601562 155.527344 233.117188 156.484375 232.722656 C 157.4375 232.328125 158.421875 232.03125 159.433594 231.828125 C 160.445312 231.628906 161.46875 231.527344 162.5 231.527344 C 163.535156 231.527344 164.554688 231.628906 165.570312 231.828125 C 166.582031 232.03125 167.566406 232.328125 168.519531 232.722656 C 169.472656 233.117188 170.378906 233.601562 171.238281 234.175781 C 172.097656 234.75 172.890625 235.402344 173.621094 236.132812 C 174.351562 236.863281 175.003906 237.65625 175.574219 238.515625 C 176.148438 239.375 176.632812 240.28125 177.027344 241.234375 C 177.425781 242.1875 177.722656 243.171875 177.921875 244.183594 C 178.125 245.195312 178.226562 246.21875 178.226562 247.25 Z M 178.226562 247.25 " fill-opacity="1" fill-rule="nonzero"/></g><g clip-path="url(#d7b35e3859)"><path fill="#ffffff" d="M 237.980469 225.238281 L 165.386719 225.238281 C 154.925781 225.238281 145.851562 217.796875 143.800781 207.542969 L 128.472656 130.886719 L 112.179688 130.886719 C 110.445312 130.886719 109.035156 129.476562 109.035156 127.742188 C 109.035156 126.003906 110.445312 124.597656 112.179688 124.597656 L 131.050781 124.597656 C 132.546875 124.597656 133.835938 125.652344 134.132812 127.125 L 149.972656 206.304688 C 151.4375 213.632812 157.914062 218.945312 165.386719 218.945312 L 237.980469 218.945312 C 239.71875 218.945312 241.125 220.355469 241.125 222.089844 C 241.125 223.828125 239.71875 225.238281 237.980469 225.238281 Z M 237.980469 225.238281 " fill-opacity="1" fill-rule="nonzero"/></g><path fill="#ffffff" d="M 247.242188 182.960938 C 246.304688 182.40625 245.152344 182.371094 244.191406 182.878906 C 238.308594 185.941406 231.988281 187.496094 225.402344 187.496094 C 202.859375 187.496094 184.542969 170.449219 184.574219 147.390625 C 184.574219 147.347656 184.605469 146.742188 184.609375 146.707031 C 184.636719 145.835938 184.300781 145 183.691406 144.390625 C 183.074219 143.773438 182.226562 143.445312 181.371094 143.464844 L 137.246094 143.464844 C 136.328125 143.492188 135.464844 143.925781 134.894531 144.640625 C 134.316406 145.351562 134.078125 146.285156 134.253906 147.191406 L 143.6875 197.511719 C 143.964844 199 145.261719 200.078125 146.777344 200.078125 L 233.164062 200.078125 C 241.074219 200.078125 247.789062 194.15625 248.761719 186.300781 C 248.78125 186.144531 248.78125 185.746094 248.78125 185.589844 C 248.757812 184.507812 248.171875 183.515625 247.242188 182.960938 Z M 247.242188 182.960938 " fill-opacity="1" fill-rule="nonzero"/><g clip-path="url(#5da6a2e80f)"><path fill="#ffffff" d="M 225.402344 112.015625 C 206.324219 112.015625 190.804688 127.535156 190.804688 146.609375 C 190.804688 165.6875 206.324219 181.207031 225.402344 181.207031 C 244.480469 181.207031 259.996094 165.6875 259.996094 146.609375 C 259.996094 127.535156 244.480469 112.015625 225.402344 112.015625 Z M 246.496094 136.257812 L 221.335938 161.417969 C 220.722656 162.027344 219.917969 162.335938 219.109375 162.335938 C 218.304688 162.335938 217.5 162.027344 216.882812 161.417969 L 204.304688 148.835938 C 203.078125 147.609375 203.078125 145.617188 204.304688 144.390625 C 205.53125 143.164062 207.523438 143.164062 208.75 144.390625 L 219.109375 154.742188 L 242.042969 131.8125 C 243.269531 130.585938 245.265625 130.585938 246.492188 131.8125 C 247.71875 133.039062 247.722656 135.023438 246.496094 136.257812 Z M 246.496094 136.257812 " fill-opacity="1" fill-rule="nonzero"/></g></svg>